<svg xmlns="http://www.w3.org/2000/svg" id="Layer_2" data-name="Layer 2" viewBox="0 0 400 80.41"><defs><style>      .cls-1 {        fill: #fff;        stroke-width: 0px;      }    </style></defs><g id="Layer_1-2" data-name="Layer 1"><path class="cls-1" d="M46.96,44.39h-6.72l-4.27-8.29H10.99l-4.27,8.29H0L19.61,7.32h7.73l19.61,37.07ZM32.98,30.57l-9.45-17.96-9.56,17.96h19.01Z"></path><path class="cls-1" d="M89.95,27.46v.97c0,5.1-1.86,9.24-5.61,12.41-3.73,3.16-8.71,4.74-14.92,4.74-5.6,0-10.29-1.38-14.08-4.14-4.4-3.21-6.61-7.41-6.61-12.6s2.2-9.29,6.61-12.5c3.85-2.83,8.66-4.25,14.44-4.25,6.96,0,12.73,2.45,17.3,7.33l-5.8,2.86c-3.21-3.1-7.18-4.66-11.89-4.66-4.18,0-7.61,1.07-10.31,3.19-2.7,2.12-4.05,4.79-4.05,8.01s1.32,6.02,3.95,8.11c2.63,2.09,6.11,3.14,10.41,3.14,6.47,0,10.76-2.36,12.88-7.07h-14.18v-5.53h21.86"></path><polygon class="cls-1" points="184.87 44.4 150.97 44.4 150.97 12.91 183.69 12.91 183.69 18.44 157.12 18.44 157.12 25.25 175.6 25.25 175.6 30.78 157.12 30.78 157.12 38.87 184.87 38.87 184.87 44.4"></polygon><polygon class="cls-1" points="228.09 44.4 218.92 44.4 197.52 18.13 197.52 44.4 191.37 44.4 191.37 12.91 200.53 12.91 221.95 39.19 221.95 12.91 228.09 12.91 228.09 44.4"></polygon><polygon class="cls-1" points="269.97 18.43 254.92 18.43 254.92 44.39 248.78 44.39 248.78 18.43 233.72 18.43 233.72 12.91 269.97 12.91 269.97 18.43"></polygon><path class="cls-1" d="M312.08,34.06c0,3.31-1.65,6.01-4.96,8.11-3.31,2.1-7.75,3.15-13.32,3.15s-10.05-1.05-13.37-3.15c-3.31-2.1-4.96-4.8-4.96-8.11V12.91h6.14v19.92c0,4.64,4.06,6.96,12.19,6.96s12.14-2.32,12.14-6.96V12.91h6.14v21.15"></path><path class="cls-1" d="M358.57,44.39h-7.04l-8.25-11.57h-15.64v11.57h-6.14V12.91h25.45c3.34,0,6.01.91,7.99,2.71,1.98,1.81,2.97,4.24,2.97,7.28,0,5.22-2.61,8.41-7.84,9.57l8.51,11.93M346.02,27.3c3.72,0,5.58-1.44,5.58-4.3,0-3.04-1.98-4.56-5.94-4.56h-18.03v8.86h18.39Z"></path><polygon class="cls-1" points="400 44.4 366.1 44.4 366.1 12.91 398.82 12.91 398.82 18.44 372.25 18.44 372.25 25.25 390.73 25.25 390.73 30.78 372.25 30.78 372.25 38.87 400 38.87 400 44.4"></polygon><path class="cls-1" d="M150.11.25c-10.05,5.45-22.83,19.69-32.2,41.5l-3.39-6.28c4.93-9.1,11.05-19.59,18.12-27.34,2.38-2.63,3.85-4.14,6.29-6.51l-.41-.6c-3.43,2.04-5.88,3.29-9.27,5.72-7.44,5.33-14.13,12.66-19.87,19.18l-3.02-5.61c5.3-5.32,11.32-10.49,17.98-15.34,1.94-1.41,2.9-1.78,4.85-3.06l-.31-.79c-10.47,2.87-19.38,6.2-27.15,10.59l-2.68-4.97c5.84-2.78,12.29-4.58,18.89-5.96l-.13-.79c-5.3.12-25.26,1.4-26.7,1.61-1.49.18-2.72.38-3.59.57h-.06,0s0,.01,0,.01h.01s.03.07.03.07h-.01,0s26.64,49.45,26.64,49.45h9.43l-.05-.08h.02c1.31-3.9,3.68-9.49,5.36-13.46,5.73-13.48,11.92-26.58,21.33-36.52l.88-1.08-.98-.33"></path><path class="cls-1" d="M53.87,73.39c-1.17-.62-2.44-.93-3.81-.93-2,0-3,.36-3,1.07,0,.43.37.69,1.12.83,1.03.08,2.05.18,3.07.28,1.47.14,2.52.4,3.14.79.69.41,1.03,1.05,1.03,1.91,0,.96-.43,1.71-1.29,2.23-.87.53-2.11.79-3.74.79-2.3,0-4.16-.53-5.54-1.57l.95-1.25c1.24.87,2.76,1.3,4.56,1.3,1.01,0,1.79-.13,2.35-.39l.83-1.03c0-.47-.35-.81-1.02-1.01-.39-.11-.97-.17-1.77-.21-1.24-.06-2.01-.11-2.29-.14-1.11-.1-1.93-.34-2.45-.71-.53-.37-.79-.9-.79-1.62,0-.85.42-1.54,1.27-2.04.84-.5,2.02-.75,3.54-.75,2.03,0,3.66.43,4.92,1.31l-1.08,1.14"></path><path class="cls-1" d="M73.8,77.2c0,.95-.47,1.72-1.42,2.32-.94.59-2.2.89-3.79.89s-2.87-.3-3.81-.89c-.95-.6-1.41-1.36-1.41-2.32v-6.02h1.75v5.67c0,1.33,1.16,1.99,3.48,1.99s3.46-.67,3.46-1.99v-5.67h1.75v6.02"></path><path class="cls-1" d="M90.73,73.39c-1.17-.62-2.44-.93-3.8-.93-2,0-3,.36-3,1.07,0,.43.37.69,1.12.83,1.03.08,2.05.18,3.06.28,1.47.14,2.52.4,3.14.79.69.41,1.03,1.05,1.03,1.91,0,.96-.43,1.71-1.29,2.23-.87.53-2.11.79-3.74.79-2.3,0-4.16-.53-5.54-1.57l.95-1.25c1.24.87,2.76,1.3,4.56,1.3,1.01,0,1.79-.13,2.34-.39l.83-1.03c0-.47-.35-.81-1.02-1.01-.39-.11-.97-.17-1.77-.21-1.24-.06-2.01-.11-2.29-.14-1.11-.1-1.93-.34-2.45-.71-.53-.37-.79-.9-.79-1.62,0-.85.42-1.54,1.27-2.04.84-.5,2.02-.75,3.54-.75,2.03,0,3.66.43,4.92,1.31l-1.08,1.14"></path><polygon class="cls-1" points="109.5 72.75 105.2 72.75 105.2 80.15 103.46 80.15 103.46 72.75 99.16 72.75 99.16 71.17 109.5 71.17 109.5 72.75"></polygon><path class="cls-1" d="M127.84,80.15h-1.93l-1.03-1.92h-6.04l-1.03,1.92h-1.93l4.9-8.97h2.17l4.89,8.97ZM124,76.64l-2.12-3.98-2.16,3.98h4.28Z"></path><rect class="cls-1" x="135.41" y="71.17" width="1.75" height="8.98"></rect><polygon class="cls-1" points="156.53 80.15 153.92 80.15 147.81 72.66 147.81 80.15 146.07 80.15 146.07 71.17 148.67 71.17 154.78 78.66 154.78 71.17 156.53 71.17 156.53 80.15"></polygon><path class="cls-1" d="M176.05,80.15h-1.92l-1.03-1.92h-6.03l-1.04,1.92h-1.92l4.89-8.97h2.18l4.88,8.97ZM172.22,76.64l-2.13-3.98-2.16,3.98h4.29Z"></path><path class="cls-1" d="M192.99,75.5c.96.49,1.43,1.23,1.43,2.22,0,1.61-1.17,2.43-3.51,2.43h-7.3v-8.97h7.39c.95,0,1.71.23,2.25.68.55.46.81,1.06.81,1.81s-.35,1.37-1.07,1.84M191.03,74.82l.97-.29.36-.78c0-.67-.43-1.01-1.27-1.01h-5.72v2.08h5.67ZM190.91,78.57l1.29-.28.47-.75c0-.77-.53-1.14-1.61-1.14h-5.69v2.17h5.55Z"></path><polygon class="cls-1" points="211.51 80.15 202.83 80.15 202.83 71.17 204.58 71.17 204.58 78.57 211.51 78.57 211.51 80.15"></polygon><polygon class="cls-1" points="228.91 80.15 219.25 80.15 219.25 71.17 228.57 71.17 228.57 72.75 221 72.75 221 74.69 226.28 74.69 226.28 76.27 221 76.27 221 78.57 228.91 78.57 228.91 80.15"></polygon><polygon class="cls-1" points="256.57 72.75 248.99 72.75 248.99 74.68 254.26 74.68 254.26 76.26 248.99 76.26 248.99 80.15 247.24 80.15 247.24 71.17 256.57 71.17 256.57 72.75"></polygon><path class="cls-1" d="M274.92,80.15h-1.93l-1.03-1.92h-6.03l-1.04,1.92h-1.92l4.89-8.97h2.18l4.88,8.97ZM271.09,76.64l-2.13-3.98-2.16,3.98h4.29Z"></path><path class="cls-1" d="M293.05,80.15h-2.01l-2.35-3.31h-4.46v3.31h-1.75v-8.97h7.26c.95,0,1.71.25,2.28.77.57.51.85,1.21.85,2.07,0,1.49-.75,2.4-2.23,2.73l2.42,3.4M289.47,75.27c1.06,0,1.59-.41,1.59-1.23,0-.86-.57-1.3-1.69-1.3h-5.14v2.52h5.24Z"></path><polygon class="cls-1" points="313.97 80.15 312.22 80.15 312.17 72.76 307.67 78.88 303.16 72.71 303.12 72.76 303.12 80.15 301.37 80.15 301.37 71.17 304 71.17 307.66 76.25 311.33 71.17 313.97 71.17 313.97 80.15"></polygon><rect class="cls-1" x="322.88" y="71.17" width="1.75" height="8.98"></rect><polygon class="cls-1" points="344 80.15 341.39 80.15 335.28 72.66 335.28 80.15 333.54 80.15 333.54 71.17 336.14 71.17 342.25 78.66 342.25 71.17 344 71.17 344 80.15"></polygon><path class="cls-1" d="M364.12,75.24v.27c0,1.46-.53,2.64-1.6,3.54-1.07.91-2.48,1.35-4.26,1.35-1.6,0-2.93-.39-4.01-1.18-1.26-.91-1.89-2.11-1.89-3.59s.63-2.65,1.89-3.57c1.1-.81,2.47-1.21,4.12-1.21,1.98,0,3.62.69,4.93,2.08l-1.65.82c-.92-.88-2.05-1.33-3.39-1.33-1.19,0-2.17.3-2.94.91-.77.61-1.16,1.36-1.16,2.28s.38,1.71,1.13,2.3c.75.6,1.74.9,2.97.9,1.84,0,3.06-.68,3.67-2.02h-4.05v-1.57h6.24"></path></g></svg>